HIERARCHY
ROOT Hips
{
	OFFSET -3.958830 18.904000 13.208200
	CHANNELS 6 Xposition Yposition Zposition Zrotation Yrotation Xrotation 
	JOINT LHipJoint
	{
		OFFSET 0.000000 0.000000 0.000000
		CHANNELS 3 Zrotation Yrotation Xrotation
		JOINT LeftUpLeg
		{
			OFFSET 1.800000 -1.400000 0.085000
			CHANNELS 3 Zrotation Yrotation Xrotation
			JOINT LeftLeg
			{
				OFFSET 2.215000 -6.000000 0.000000
				CHANNELS 3 Zrotation Yrotation Xrotation
				JOINT LeftFoot
				{
					OFFSET 2.500000 -6.900000 0.000000
					CHANNELS 3 Zrotation Yrotation Xrotation
					JOINT LeftToeBase
					{
						OFFSET 0.200000 -0.500000 1.950000
						CHANNELS 3 Zrotation Yrotation Xrotation
						End Site
						{
							OFFSET 0.000000 0.000000 0.000000
						}
					}
				}
			}
		}
	}
	JOINT RHipJoint
	{
		OFFSET 0.000000 0.000000 0.000000
		CHANNELS 3 Zrotation Yrotation Xrotation
		JOINT RightUpLeg
		{
			OFFSET -1.800000 -1.400000 0.085000
			CHANNELS 3 Zrotation Yrotation Xrotation
			JOINT RightLeg
			{
				OFFSET -2.215000 -6.000000 0.000000
				CHANNELS 3 Zrotation Yrotation Xrotation
				JOINT RightFoot
				{
					OFFSET -2.500000 -6.900000 0.000000
					CHANNELS 3 Zrotation Yrotation Xrotation
					JOINT RightToeBase
					{
						OFFSET -0.200000 -0.500000 1.950000
						CHANNELS 3 Zrotation Yrotation Xrotation
						End Site
						{
							OFFSET 0.000000 0.000000 0.000000
						}
					}
				}
			}
		}
	}
	JOINT LowerBack
	{
		OFFSET 0.000000 0.000000 0.000000
		CHANNELS 3 Zrotation Yrotation Xrotation
		JOINT Spine
		{
			OFFSET -0.087000 1.940000 -0.288900
			CHANNELS 3 Zrotation Yrotation Xrotation
			JOINT Spine1
			{
				OFFSET 0.000000 1.950000 0.060000
				CHANNELS 3 Zrotation Yrotation Xrotation
				JOINT Neck
				{
					OFFSET 0.000000 0.000000 0.000000
					CHANNELS 3 Zrotation Yrotation Xrotation
					JOINT Neck1
					{
						OFFSET 0.000000 1.600000 0.340000
						CHANNELS 3 Zrotation Yrotation Xrotation
						JOINT Head
						{
							OFFSET 0.000000 1.667000 -0.240000
							CHANNELS 3 Zrotation Yrotation Xrotation
							End Site
							{
								OFFSET 0.000000 0.000000 0.000000
							}
						}
					}
				}
				JOINT LeftShoulder
				{
					OFFSET 0.000000 0.000000 0.000000
					CHANNELS 3 Zrotation Yrotation Xrotation
					JOINT LeftArm
					{
						OFFSET 2.700000 1.550000 -0.730000
						CHANNELS 3 Zrotation Yrotation Xrotation
						JOINT LeftForeArm
						{
							OFFSET 5.450000 0.000000 0.000000
							CHANNELS 3 Zrotation Yrotation Xrotation
							JOINT LeftHand
							{
								OFFSET 3.450000 0.000000 0.000000
								CHANNELS 3 Zrotation Yrotation Xrotation
								JOINT LeftHandIndex1
								{
									OFFSET 0.750000 0.000000 0.000000
									CHANNELS 3 Zrotation Yrotation Xrotation
									End Site
									{
										OFFSET 0.000000 0.000000 0.000000
									}
								}
							}
						}
					}
				}
				JOINT RightShoulder
				{
					OFFSET 0.000000 0.000000 0.000000
					CHANNELS 3 Zrotation Yrotation Xrotation
					JOINT RightArm
					{
						OFFSET -2.700000 1.550000 -0.730000
						CHANNELS 3 Zrotation Yrotation Xrotation
						JOINT RightForeArm
						{
							OFFSET -5.450000 0.000000 0.000000
							CHANNELS 3 Zrotation Yrotation Xrotation
							JOINT RightHand
							{
								OFFSET -3.450000 0.000000 0.000000
								CHANNELS 3 Zrotation Yrotation Xrotation
								JOINT RightHandIndex1
								{
									OFFSET -0.750000 0.000000 0.000000
									CHANNELS 3 Zrotation Yrotation Xrotation
									End Site
									{
										OFFSET 0.000000 0.000000 0.000000
									}
								}
							}
						}
					}
				}
			}
		}
	}
}
MOTION
Frames: 10
Frame Time: 0.016667
3.754660 16.604800 0.517970 2.278917 -9.973078 9.135264 -14.948152 13.932889 3.212607 10.495238 -2.409984 -14.182449 -3.494039 3.785753 4.393603 -0.090087 3.345653 3.538597 -0.120050 -0.132430 -0.258120 18.135841 -10.356509 3.299398 -18.489094 0.888651 -18.736210 5.540864 -2.616639 0.341555 0.149774 -2.928676 3.453225 0.024100 0.430010 -0.041340 -3.530002 -3.450692 -7.849357 10.668736 -4.535965 15.616184 -10.044170 -4.884385 -15.110556 3.775964 -10.949223 -16.035899 -23.318157 14.036184 20.812008 1.918180 9.074450 4.337500 20.997270 6.785401 4.341133 24.782443 6.378891 3.646548 28.620229 -0.524238 1.288937 -4.243979 3.124498 -0.078460 0.264130 -0.299620 0.114860 -24.030912 0.104833 2.650711 -43.722317 -31.235533 12.642086 -29.064273 6.507692 1.468461 3.665215 -1.809585 -0.204120 0.173420 0.136800 0.027840 
3.730290 16.603400 0.524240 2.429621 -10.193839 9.157519 -14.922368 13.857727 3.232391 10.686672 -2.412654 -13.572319 -3.665233 3.711028 3.497048 -0.055558 3.370000 3.535683 -0.135430 -0.145880 -0.277370 18.160072 -10.375709 3.319681 -19.062719 0.753399 -18.700042 6.402543 -2.828444 0.691588 0.140152 -3.010412 3.415746 0.009030 0.434230 -0.044760 -3.600650 -3.321711 -7.842313 11.072890 -4.514076 15.441149 -11.100191 -5.123423 -15.070233 3.956277 -11.035999 -16.263212 -23.797212 14.449254 21.085636 2.615300 9.096370 5.129430 20.997259 6.497159 4.472165 24.953955 5.644643 3.499948 28.058493 0.714996 1.364636 -4.182668 3.116851 -0.082230 0.258360 -0.301110 0.114980 -24.332224 0.170275 2.826980 -43.861895 -32.521446 13.098408 -27.560938 6.297683 1.481205 3.676008 -1.792618 -0.200030 0.166160 0.141990 0.037280 
3.704120 16.611660 0.516790 2.333753 -11.729187 9.031755 -14.917784 13.897401 3.216006 10.798124 -2.339893 -13.073008 -3.462378 3.723590 3.517145 -0.025599 3.373100 3.534342 -0.143580 -0.151360 -0.285670 18.165807 -10.362138 3.315887 -19.207608 0.701920 -19.270332 7.103772 -3.007787 1.398501 0.139161 -2.981915 3.422137 -0.010050 0.423810 -0.056370 -3.592411 -3.414607 -7.796943 11.011831 -4.781775 15.568396 -11.082653 -5.254446 -15.182962 4.065729 -11.292425 -16.451254 -25.061784 15.750599 20.853489 3.165210 9.990010 5.637800 20.249436 5.698093 5.066004 25.433917 6.581625 3.199412 28.247616 5.271222 1.877634 -4.146926 3.024145 -0.066010 0.237390 -0.287480 0.117610 -23.572452 0.922791 3.467298 -44.120557 -34.359202 13.593018 -26.370303 5.212119 1.569930 3.623588 -1.709496 -0.196920 0.162150 0.136950 0.040370 
3.665780 16.619240 0.512270 2.018983 -16.040972 8.932150 -14.900392 13.924478 3.158863 11.110864 -2.145585 -12.150961 -3.791783 3.962235 4.134445 -0.003920 3.465831 3.493535 -0.133890 -0.129220 -0.274810 18.195174 -10.280369 3.381292 -19.220019 0.791287 -20.328067 8.174130 -3.093696 1.516745 0.127508 -2.939989 3.426197 -0.008040 0.406420 -0.065410 -3.607334 -3.526851 -7.763224 10.509759 -5.326821 15.273575 -10.741887 -5.644000 -15.067507 3.815912 -11.383309 -16.477808 -25.736582 18.038608 20.077849 3.753440 12.040740 5.241440 18.938547 4.911814 5.526254 26.755416 9.672178 3.323852 29.103364 8.409435 2.414497 -4.146899 2.962076 -0.041240 0.218510 -0.262900 0.117500 -21.676177 1.675919 4.191485 -42.230017 -34.523571 12.708313 -26.126941 3.017995 1.682107 3.586646 -1.589799 -0.197200 0.164650 0.126840 0.033030 
3.641400 16.625020 0.511570 2.003343 -18.564240 8.729236 -14.887843 13.948447 3.102538 11.288709 -2.030370 -11.832890 -4.038181 4.191756 5.090420 0.000538 3.517407 3.462216 -0.122720 -0.107490 -0.264740 18.209679 -10.244402 3.433371 -19.558813 0.791804 -20.626786 8.891326 -3.179235 1.496444 0.107066 -2.960592 3.408050 -0.002090 0.391520 -0.072520 -3.621481 -3.570116 -7.743744 10.027417 -5.528391 15.180679 -10.473983 -5.816780 -15.160630 3.600083 -11.438802 -16.435472 -26.265564 19.521493 19.691001 4.347020 13.181770 4.688790 17.927004 4.369891 5.734211 27.663602 11.204354 3.418947 29.950843 10.292169 2.817767 -4.128599 2.933213 -0.020450 0.200270 -0.241770 0.115270 -20.181907 2.144323 4.547277 -41.430213 -34.583346 12.356273 -25.966541 1.905800 1.760768 3.549859 -1.518534 -0.196170 0.171860 0.121340 0.028630 
3.623520 16.622670 0.515810 2.136740 -20.388353 8.362927 -14.872915 13.954158 3.062063 11.291419 -1.900863 -11.347677 -4.178858 4.337196 5.634798 -0.003307 3.565452 3.438639 -0.110520 -0.094530 -0.249470 18.225635 -10.250047 3.458781 -19.919262 0.744742 -20.756368 9.263555 -3.275560 1.636998 0.090160 -2.985382 3.389480 0.002960 0.375660 -0.074380 -3.651079 -3.541976 -7.730284 9.675339 -5.565956 15.067012 -10.510121 -5.866090 -14.847431 3.422617 -11.488717 -16.334522 -26.549517 20.155340 19.680296 4.466980 13.691760 3.961500 17.247516 4.201810 5.716552 28.317490 12.269611 3.564765 30.541965 11.028975 3.031166 -4.113229 2.918762 0.002560 0.185270 -0.224110 0.111440 -19.256305 2.367509 4.788160 -40.734453 -34.495683 12.002743 -25.655129 1.161099 1.790234 3.520406 -1.467451 -0.197310 0.178240 0.118600 0.019770 
3.614990 16.618660 0.521420 2.267643 -21.820185 8.169314 -14.851813 13.956262 3.029102 11.014630 -1.801858 -10.858948 -3.992382 4.347379 5.866671 -0.009627 3.565921 3.438971 -0.088680 -0.080220 -0.224790 18.247220 -10.280233 3.480678 -20.010098 0.755369 -21.173075 9.370482 -3.309214 1.849474 0.084034 -2.964967 3.387472 0.010530 0.357820 -0.072730 -3.702544 -3.443125 -7.715520 9.502712 -5.426248 15.080310 -10.618742 -5.766712 -14.817063 3.146071 -11.529986 -16.301717 -26.716078 20.188827 19.725072 4.502190 13.572030 3.294840 17.105169 4.396532 5.615889 28.553642 12.743414 3.690154 31.010302 11.141175 3.141447 -4.101468 2.918746 0.018780 0.170310 -0.211250 0.110830 -18.647902 2.221083 5.013027 -39.517790 -34.299873 11.510865 -26.179839 0.158217 1.923561 3.540631 -1.434989 -0.193840 0.178650 0.108720 0.011400 
3.614880 16.621900 0.528050 2.349772 -23.706065 8.281649 -14.830540 13.948496 3.013287 10.389389 -1.685911 -10.329460 -3.820925 4.307932 5.818082 -0.008230 3.542002 3.452733 -0.095500 -0.081560 -0.240430 18.272041 -10.316553 3.507280 -19.912930 0.870796 -22.279606 9.108414 -3.255624 2.183214 0.107658 -2.875678 3.415399 0.011620 0.362640 -0.082320 -3.760068 -3.275190 -7.699023 9.704656 -4.783788 15.152697 -10.919660 -5.185540 -15.405558 2.996652 -11.693264 -16.349616 -27.347119 20.325462 19.444957 4.779290 13.324200 3.405080 16.919801 4.450839 5.616044 28.338451 12.737315 3.691455 31.765795 11.364364 3.343091 -4.095882 2.923122 0.016190 0.166100 -0.216870 0.111210 -18.072001 2.365230 5.190476 -39.553055 -34.655829 11.655458 -26.342903 -0.351508 2.024752 3.525952 -1.409876 -0.197170 0.185870 0.115240 0.017360 
3.614090 16.620010 0.529160 2.557221 -24.714122 8.240058 -14.809526 13.950039 3.011234 9.966736 -1.607805 -9.996331 -3.853431 4.326070 5.934193 -0.004869 3.529751 3.458351 -0.082460 -0.063600 -0.238220 18.292476 -10.376941 3.490891 -19.768145 0.887110 -22.981841 8.357555 -3.179793 2.552659 0.117419 -2.778066 3.448919 0.018720 0.356000 -0.085490 -3.812524 -3.141948 -7.674191 9.768975 -4.554743 15.273328 -11.196889 -5.043582 -15.808611 2.858349 -11.780244 -16.369975 -27.708880 20.484532 19.280062 5.049680 13.198480 3.095900 16.728807 4.526987 5.587336 28.258910 12.919279 3.729658 32.219741 11.431815 3.463355 -4.076713 2.930447 0.021750 0.155430 -0.208990 0.117600 -17.574104 2.338594 5.320516 -39.108777 -34.824807 11.586426 -26.820658 -0.785995 2.137916 3.534765 -1.398585 -0.192170 0.189220 0.107490 0.021320 
3.619330 16.623820 0.528450 3.085320 -25.751735 7.861054 -14.773775 13.920762 3.010795 9.273314 -1.475530 -9.379116 -4.069321 4.371780 5.982534 0.005887 3.529815 3.465724 -0.064530 -0.045370 -0.227860 18.332175 -10.479490 3.454354 -19.848218 0.774431 -23.792668 7.516143 -3.198116 3.391773 0.125461 -2.699921 3.470743 0.026170 0.347170 -0.088120 -3.918553 -2.929333 -7.631430 9.807021 -4.785701 15.327045 -11.925984 -5.423946 -15.699744 2.675702 -11.887049 -16.417717 -27.888501 20.646208 19.044782 5.347370 13.101940 2.814950 16.487493 4.505548 5.650382 28.484919 14.044079 3.795055 32.655695 12.079607 3.671854 -4.065249 2.937775 0.025870 0.143380 -0.201370 0.126120 -17.099043 2.380295 5.519784 -38.171992 -34.511205 11.114313 -27.061272 -1.485686 2.203725 3.554740 -1.383974 -0.186270 0.189870 0.093840 0.023430 
